# xmcd
#
# Track frame offsets:
#	150
#	13604
#	26960
#	40962
#	55729
#	71682
#	83044
#	97779
#	117766
#	134985
#	146791
#	158221
#	175733
#	190326
#	204380
#	217974
#	230746
#	242580
#	256371
#	269803
#
# Disc length: 3761 seconds
#
# Revision: 2
# Processed by: cddbd v1.5.2PL0 Copyright (c) Steve Scherf et al.
# Submitted via: EasyCDDAExtractor 15.3.0.1
#
DISCID=290eaf14
DTITLE=Max D  Barnes - Rough Around The Edges -80+Pieces Of My Life -81
DYEAR=1981
DGENRE=Country
TTITLE0=Mean Woman Blues
TTITLE1=Patricia
TTITLE2=Rough Around The Edges
TTITLE3=Singer Of Sad Songs
TTITLE4=Rustin' Down
TTITLE5=Don't Ever Leave Me Again
TTITLE6=Only For You
TTITLE7=Cowboys Are Common As Sin
TTITLE8=Heaven On A Freight Train
TTITLE9=Too Far Gone To Find
TTITLE10=She Loves My Troubles Away
TTITLE11=Pieces Of My Life
TTITLE12=Lady Jane
TTITLE13=Rolling River
TTITLE14=Fool Enough
TTITLE15=Givin' Out From Givin' In
TTITLE16=Let's Hear It For The Working Man
TTITLE17=Send Me Back To Caroline
TTITLE18=Rainbows And Roses
TTITLE19=Touching Souls
EXTD=
EXTT0=
EXTT1=
EXTT2=
EXTT3=
EXTT4=
EXTT5=
EXTT6=
EXTT7=
EXTT8=
EXTT9=
EXTT10=
EXTT11=
EXTT12=
EXTT13=
EXTT14=
EXTT15=
EXTT16=
EXTT17=
EXTT18=
EXTT19=
PLAYORDER=
